<svg xmlns="http://www.w3.org/2000/svg" viewBox="0 0 760 430" role="img" aria-labelledby="title desc">
  <title id="title">MediVault AI medical document assistant illustration</title>
  <desc id="desc">A calm clinical dashboard with document cards, a heart icon, and retrieval nodes.</desc>
  <defs>
    <linearGradient id="bg" x1="0" x2="1" y1="0" y2="1">
      <stop offset="0%" stop-color="#e9fbfa"/>
      <stop offset="58%" stop-color="#f7fcff"/>
      <stop offset="100%" stop-color="#dceffc"/>
    </linearGradient>
    <linearGradient id="panel" x1="0" x2="1">
      <stop offset="0%" stop-color="#ffffff"/>
      <stop offset="100%" stop-color="#f1fbfd"/>
    </linearGradient>
    <filter id="shadow" x="-20%" y="-20%" width="140%" height="140%">
      <feDropShadow dx="0" dy="18" stdDeviation="18" flood-color="#0f766e" flood-opacity="0.18"/>
    </filter>
  </defs>
  <rect width="760" height="430" rx="28" fill="url(#bg)"/>
  <circle cx="648" cy="78" r="58" fill="#d0f2ee" opacity="0.75"/>
  <circle cx="112" cy="350" r="72" fill="#d7ecff" opacity="0.82"/>
  <path d="M72 122 C138 84 216 94 268 132 S382 178 458 140 S606 80 692 116" fill="none" stroke="#9ed7d2" stroke-width="5" stroke-linecap="round" opacity="0.75"/>
  <g filter="url(#shadow)">
    <rect x="122" y="86" width="516" height="282" rx="24" fill="url(#panel)" stroke="#c5e4ea"/>
  </g>
  <rect x="156" y="124" width="214" height="36" rx="12" fill="#dff6f4"/>
  <rect x="158" y="184" width="248" height="26" rx="9" fill="#eef7fa"/>
  <rect x="158" y="224" width="206" height="26" rx="9" fill="#eef7fa"/>
  <rect x="158" y="264" width="232" height="26" rx="9" fill="#eef7fa"/>
  <rect x="158" y="304" width="154" height="26" rx="9" fill="#eef7fa"/>
  <path d="M178 142 h22 m-11 -11 v22" stroke="#0f766e" stroke-width="8" stroke-linecap="round"/>
  <path d="M232 143 H342" stroke="#2563a8" stroke-width="10" stroke-linecap="round"/>
  <g transform="translate(430 128)">
    <rect x="0" y="0" width="156" height="186" rx="18" fill="#ffffff" stroke="#c5e4ea"/>
    <path d="M78 48 C78 32 99 28 108 42 C121 28 142 36 142 55 C142 84 108 104 108 104 C108 104 78 84 78 48Z" fill="#ef6f61" opacity="0.95" transform="translate(-30 0)"/>
    <path d="M24 132 h20 l12 -24 18 48 16 -34 h42" fill="none" stroke="#0f766e" stroke-width="7" stroke-linecap="round" stroke-linejoin="round"/>
  </g>
  <g fill="#0f766e">
    <circle cx="474" cy="344" r="9"/>
    <circle cx="528" cy="344" r="9"/>
    <circle cx="582" cy="344" r="9"/>
  </g>
  <path d="M483 344 H519 M537 344 H573" stroke="#7bcac3" stroke-width="5" stroke-linecap="round"/>
  <g fill="#ffffff" stroke="#a7d8dd" stroke-width="2">
    <rect x="68" y="170" width="98" height="82" rx="14"/>
    <rect x="604" y="226" width="94" height="78" rx="14"/>
  </g>
  <path d="M91 198 h48 M91 220 h36 M91 242 h52" stroke="#7da3ad" stroke-width="6" stroke-linecap="round"/>
  <path d="M628 252 h44 M628 274 h30" stroke="#7da3ad" stroke-width="6" stroke-linecap="round"/>
</svg>
